<svg id="logo" xmlns="http://www.w3.org/2000/svg" width="312.27" height="196.1" viewBox="0 0 312.27 196.1"><title>logo</title><g id="m"><path d="M284.27,196,265.79,47.88l-53.2,101.64L158.27,47.6,139.79,196h-28L138.11,0h22.68l51.52,97.16L263.27,0h23l26,196Z" fill="#0288d1"/></g><g id="d"><path d="M138.42.1l-26,196h-22V177.88A42,42,0,0,1,71.87,189a53.23,53.23,0,0,1-22.53,1.67A51.76,51.76,0,0,1,21.41,178,61.63,61.63,0,0,1,3.88,151.47a72.43,72.43,0,0,1-3.14-34A77.23,77.23,0,0,1,12.26,85.7,59.41,59.41,0,0,1,35.77,64.22a52.45,52.45,0,0,1,31.36-4.94A56.54,56.54,0,0,1,88,66.3a44.94,44.94,0,0,1,15.55,15L114.5.1ZM74.67,168.27q9.15-3.61,15.92-12.93t8.83-24.52q1.92-14.16-2.09-25.21A39.45,39.45,0,0,0,85.4,88.12a33.91,33.91,0,0,0-16.94-7.67q-17.52-2.37-29.42,9T24.45,120.67q-2.58,19.06,6,33.34t25.82,16.62A36.15,36.15,0,0,0,74.67,168.27Z" fill="#fafafa"/></g></svg>